<?xml version="1.0" encoding="utf-8"?>
<!-- Generator: Adobe Illustrator 21.1.0, SVG Export Plug-In . SVG Version: 6.00 Build 0)  -->
<svg version="1.1" id="Layer_1" xmlns="http://www.w3.org/2000/svg" xmlns:xlink="http://www.w3.org/1999/xlink" x="0px" y="0px"
	 viewBox="0 0 136.8 136" style="enable-background:new 0 0 136.8 136;" xml:space="preserve">
<style type="text/css">
	.st0{fill:#FFFFFF;}
	.st1{filter:url(#Adobe_OpacityMaskFilter);}
	.st2{mask:url(#SVGID_2_);fill:#FFFFFF;}
</style>
<g id="Layer_2">
</g>
<path class="st0" d="M135.5,81l1.2-11.5l-9.1-3.1c-0.1-3-0.4-6-0.9-8.9l8.3-4.9l-3.6-11l-9.6,0.9c-1.3-2.7-2.8-5.3-4.5-7.8l5.6-7.9
	l-7.7-8.6l-8.4,4.7c-2.3-1.9-4.7-3.7-7.3-5.3l1.9-9.4L90.8,3.5l-5.7,7.7c-2.8-0.8-5.8-1.5-8.8-1.9L74.2,0H62.6l-2.1,9.4
	c-3,0.4-5.9,1-8.8,1.9l-5.7-7.7L35.4,8.2l1.9,9.4c-2.6,1.6-5,3.3-7.3,5.3l-8.4-4.7l-7.7,8.6l5.6,7.9c-1.7,2.5-3.2,5.1-4.5,7.8
	l-9.6-0.9l-3.6,11l8.3,4.9c-0.5,2.9-0.8,5.9-0.9,8.9L0,69.5L1.2,81l9.6,1.1c0.7,2.9,1.6,5.8,2.8,8.5l-7.1,6.5l5.8,10l9.2-2.9
	c1.8,2.4,3.8,4.6,6,6.7l-3.8,8.8l9.4,6.8l7.2-6.3c2.6,1.4,5.4,2.6,8.2,3.7l0.1,9.6l11.3,2.4l4-8.7c1.5,0.1,3,0.2,4.5,0.2
	c1.5,0,3-0.1,4.5-0.2l4,8.7l11.3-2.4l0.1-9.6c2.8-1,5.6-2.2,8.2-3.7l7.2,6.3l9.4-6.8l-3.8-8.8c2.2-2.1,4.2-4.3,6-6.7l9.2,2.9l5.8-10
	l-7.1-6.5c1.1-2.8,2.1-5.6,2.8-8.5L135.5,81z M111.3,40.3l1.7,3.2l-10,5.4l2.7,4.9l-2.7,1.4l-4.4-8.1L111.3,40.3z M101.9,29.7
	L97,44.2l-3-2.4l0.9-2.2l-4.1-3.3l-2,1.3l-3-2.4L99,27.4L101.9,29.7z M79.7,21l1-2.7l10.4,3.8l-1,2.7l-3.5-1.3l-4,10.8l-3.4-1.3
	l4-10.8L79.7,21z M70.8,17.2l3.6,0.3l-1.2,14.3l-3.6-0.3L70.8,17.2z M59.4,17.9c3.3-0.7,5.4,0.5,6.1,3.7c0.7,3.6-2.2,5.3-4.7,5.9
	l-2.9,0.6l1,4.6l-3.5,0.7l-2.9-14.1L59.4,17.9z M39.6,26l12.8,8.4l-3.1,2.3l-1.9-1.4l-4.3,3.1l0.8,2.3L40.9,43l-4.2-14.7L39.6,26z
	 M23.9,42.3c1.3-2.3,3.9-3.6,6.2-3.4L30,42c-1.1-0.3-2.7,0.3-3.4,1.6c-1.1,2,0.1,4.1,2.2,5.3c2.7,1.6,4.9,0.9,5.9-0.8
	c0.9-1.6,0.2-2.9-0.3-3.8l2.7-1.8c1.2,2,1.7,4.6,0.2,7.2c-1.9,3.3-5.8,4.6-10,2.2C23.4,50,21.9,45.9,23.9,42.3 M20.9,86.9l-1.4-3.3
	l13.2-5.7l4.4,10.1l-2.5,1.1l-2.9-6.9l-2.8,1.2l2.7,6.3l-2.6,1.1l-2.7-6.3L20.9,86.9z M36.6,108.6l-2.7-2.8l1.2-2.1l-3.7-3.8
	l-2.2,1.1l-2.7-2.8l14.1-6.1l2.6,2.7L36.6,108.6z M53.9,107c0.2-1.1-0.5-2.7-1.8-3.3c-2.1-1-4.1,0.4-5.2,2.6c-1.4,2.8-0.6,5,1.1,5.8
	c1.7,0.8,2.9,0,3.7-0.6l1.9,2.5c-1.9,1.3-4.5,2-7.2,0.7c-3.4-1.7-5-5.5-2.9-9.9c1.8-3.8,5.9-5.6,9.6-3.8c2.4,1.1,3.9,3.6,3.8,6
	L53.9,107z M71.1,107.8l-3.7-0.3l-0.8,11.5l-3.6-0.2l0.8-11.5l-3.7-0.3l0.2-2.8l11.1,0.8L71.1,107.8z M68.4,95.9
	c-15.3,0-27.7-12.4-27.7-27.7c0-15.3,12.4-27.7,27.7-27.7c15.3,0,27.7,12.4,27.7,27.7C96.1,83.5,83.7,95.9,68.4,95.9 M84.8,116.8
	c-4.5,1.5-8-1.2-9.2-5c-1.1-3.1-0.6-7.8,4.3-9.5c5-1.7,8.3,1.8,9.4,5C90.4,111,89.1,115.3,84.8,116.8 M104.7,104l-5.6-1.9l-1.7,1.5
	l3.4,3.8l-2.7,2.4l-9.6-10.7l5-4.6c1.6-1.4,4.5-3.3,7.2-0.2c1.6,1.8,1.3,3.5,0.5,4.9l6.3,2L104.7,104z M114.2,90.3l-6.1-2.7
	l-9.2,1.8l1.7-3.8l5.7-0.9l-3.2-4.8l1.7-3.7l4.7,8l6.2,2.7L114.2,90.3z"/>
<polygon class="st0" points="68.4,49.9 72.3,62 85,62 74.7,69.5 78.7,81.6 68.4,74.1 58.1,81.6 62,69.5 51.7,62 64.4,62 "/>
<path class="st0" d="M80.8,105.2c-2.6,0.9-2.5,3.6-1.9,5.4c0.7,2.2,2.5,4.1,4.9,3.3c2.5-0.9,2.6-3.5,2-5.4
	C85,106,83.2,104.4,80.8,105.2"/>
<polygon class="st0" points="45.2,33.7 40.1,29.9 42.3,35.8 "/>
<polygon class="st0" points="98.3,31.2 93.1,34.7 95.9,37 "/>
<path class="st0" d="M95.2,96.7l-2.2,2l2.6,2.9l2.2-2c1.5-1.4,0.6-2.6,0.3-2.9C96.8,95.3,95.7,96.3,95.2,96.7"/>
<polygon class="st0" points="36.4,101.4 39.4,95.8 33.8,98.7 "/>
<path class="st0" d="M59.7,25c1.6-0.3,2.6-0.9,2.2-2.8c-0.4-2-2.1-1.7-3.2-1.5l-2.3,0.5l0.9,4.3L59.7,25z"/>
<g id="Layer_3">
	<defs>
		<filter id="Adobe_OpacityMaskFilter" filterUnits="userSpaceOnUse" x="21.5" y="19.6" width="91.7" height="97.1">
			<feColorMatrix  type="matrix" values="1 0 0 0 0  0 1 0 0 0  0 0 1 0 0  0 0 0 1 0"/>
		</filter>
	</defs>
	<mask maskUnits="userSpaceOnUse" x="21.5" y="19.6" width="91.7" height="97.1" id="SVGID_2_">
		<g class="st1">
			<path d="M80,103.5c2.3-0.8,4,0.8,4.8,3.1c0.6,1.8,0.5,4.4-1.9,5.2c-2.3,0.8-4-1-4.7-3.1C77.5,106.9,77.5,104.3,80,103.5
				 M46.1,35.3l-4.9-3.6l2.1,5.7L46.1,35.3z M96.6,32.9l-5,3.4l2.7,2.2L96.6,32.9z M93.7,95.4l-2.1,1.9l2.5,2.8l2.1-1.9
				c1.5-1.3,0.5-2.5,0.2-2.8C95.2,94,94.1,95,93.7,95.4 M37.6,99.8l2.9-5.3l-5.3,2.8L37.6,99.8z M59.8,27.1c1.5-0.3,2.5-0.9,2.1-2.6
				c-0.4-1.9-2-1.6-3-1.4l-2.1,0.4l0.8,4.1L59.8,27.1z"/>
		</g>
	</mask>
	<path class="st2" d="M109,41.6l1.6,3l-9.5,5.2l2.6,4.7l-2.5,1.4l-4.2-7.7L109,41.6z M100.1,31.5l-4.7,13.8L92.5,43l0.9-2.1
		l-3.9-3.2L87.6,39l-2.8-2.3l12.6-7.4L100.1,31.5z M79,23.2l0.9-2.5l9.9,3.6l-0.9,2.5l-3.3-1.2L81.8,36l-3.2-1.2l3.8-10.3L79,23.2z
		 M70.4,19.6l3.4,0.3l-1.1,13.7l-3.4-0.3L70.4,19.6z M59.5,20.3c3.2-0.7,5.2,0.5,5.8,3.6c0.7,3.4-2.1,5.1-4.5,5.6L58.1,30l0.9,4.4
		l-3.4,0.7l-2.8-13.4L59.5,20.3z M40.7,28l12.2,8L50,38.2l-1.8-1.4l-4.1,3l0.8,2.2l-2.9,2.2l-4-14L40.7,28z M25.7,43.5
		c1.2-2.2,3.7-3.5,5.9-3.3l-0.2,3c-1-0.3-2.6,0.3-3.3,1.5c-1.1,1.9,0.1,4,2.1,5.1c2.6,1.5,4.7,0.9,5.6-0.7c0.9-1.6,0.2-2.8-0.3-3.6
		l2.5-1.7c1.1,1.9,1.6,4.4,0.2,6.9c-1.8,3.2-5.5,4.4-9.6,2.1C25.3,50.9,23.8,46.9,25.7,43.5 M22.9,86l-1.3-3.1l12.6-5.4l4.2,9.7
		l-2.4,1L33,81.7l-2.6,1.1l2.6,6l-2.4,1.1l-2.6-6L22.9,86z M37.8,106.7l-2.5-2.6l1.1-2l-3.5-3.6l-2.1,1l-2.5-2.6L41.7,91l2.5,2.6
		L37.8,106.7z M54.3,105.2c0.2-1.1-0.5-2.5-1.7-3.2c-2-1-3.9,0.4-4.9,2.5c-1.3,2.7-0.6,4.7,1.1,5.5c1.6,0.8,2.8,0,3.6-0.5l1.8,2.4
		c-1.8,1.2-4.3,1.9-6.8,0.6c-3.3-1.6-4.8-5.2-2.8-9.4c1.8-3.7,5.6-5.3,9.1-3.7c2.3,1.1,3.7,3.4,3.7,5.7L54.3,105.2z M70.7,105.9
		l-3.5-0.2l-0.8,11l-3.4-0.2l0.8-11l-3.6-0.2l0.2-2.7l10.6,0.7L70.7,105.9z M83.7,114.5c-4.3,1.5-7.6-1.2-8.8-4.7
		c-1-3-0.6-7.4,4.1-9c4.7-1.6,7.9,1.7,8.9,4.8C89.2,109,87.9,113.1,83.7,114.5 M102.7,102.3l-5.3-1.8l-1.6,1.4l3.3,3.6l-2.6,2.3
		l-9.2-10.2l4.8-4.3c1.5-1.4,4.3-3.1,6.9-0.2c1.6,1.7,1.2,3.3,0.5,4.7l6,1.9L102.7,102.3z M111.8,89.3l-5.8-2.6l-8.8,1.8l1.6-3.6
		l5.4-0.8l-3.1-4.6l1.6-3.6l4.5,7.7l5.9,2.6L111.8,89.3z"/>
</g>
</svg>
